<svg width="297" height="300" viewBox="0 0 297 300" fill="none" xmlns="http://www.w3.org/2000/svg">
<path d="M55.4609 267.306C54.2481 270.629 54.8137 275.183 56.399 278.326C59.6441 279.646 60.5473 273.826 62.142 271.979C61.5314 269.542 58.2006 268.13 56.0329 267.035L55.4609 267.306V267.306Z" fill="#0A192F"/>
<path d="M95.1745 285.978C92.356 288.294 90.4566 292.476 89.9121 296.212C91.7004 298.232 94.9001 295.044 97.1879 295.228C101.496 293.532 107.197 293.615 110.71 290.898C108.515 288.058 103.812 288.454 100.711 287.014C98.8836 286.637 97.0407 286.007 95.1743 285.978H95.1745Z" fill="#0A192F"/>
<path d="M62.9913 271.855C60.4705 274.878 57.9896 278.934 57.3857 282.974C67.1505 288.302 77.8187 292.246 87.9298 297.02C90.9477 294.979 91.5693 289.45 93.6962 286.147C91.2947 282.713 85.5217 282.08 81.8148 279.743C75.5615 277.202 69.4282 273.549 62.9911 271.855H62.9913Z" fill="#0A192F"/>
<path d="M33.0846 185.07C27.0412 183.675 29.6804 190.646 29.6526 194.442C30.8842 206.25 33.5221 218.237 38.9649 228.586C40.7817 230.547 45.5512 229.276 43.7229 225.845C40.9144 212.316 39.1199 198.424 36.8597 184.898C35.6428 184.622 34.3268 185.067 33.0849 185.07H33.0846Z" fill="#0A192F"/>
<path d="M250.994 130.929C248.437 133.329 251.047 137.894 250.468 141.064C250.782 162.119 251.283 183.449 248.395 204.287C246.255 215.258 245.353 227.611 237.06 235.378C220.271 255.493 196.676 268.488 171.746 272.244C146.559 275.685 120.278 274.727 95.9169 266.717C79.5122 260.928 63.3301 250.521 54.5502 234.197C48.8708 220.854 48.6043 205.652 46.5748 191.297C45.0849 181.475 45.8558 171.267 43.7957 161.602C41.2431 159.434 41.2186 164.978 41.0273 166.546C41.1907 173.068 38.4294 178.917 37.7783 185.242C39.3347 202.947 42.3211 220.701 47.2048 237.712C56.2425 256.034 73.8977 267.568 91.6144 274.365C121.149 284.588 153.432 285.568 183.617 277.954C206.602 272.059 228.069 259.288 244.401 240.792C252.243 222.82 256.816 202.973 258.201 183.126C258.251 177.568 254.989 172.844 255.751 167.163C255.802 158.448 254.603 149.277 255.936 140.79C257.765 139.706 260.12 135.605 256.691 135.083C253.067 136.253 253.894 131.129 251.002 130.924L250.994 130.929Z" fill="#0A192F"/>
<path d="M209.575 22.1949C207.508 24.2207 210.611 27.7067 210.512 30.2628C213.971 43.267 214.481 56.9955 213.418 70.3603C217.196 74.9242 223.559 76.0434 228.111 79.6947C233.418 82.334 237.385 87.7444 243.003 89.4495C245.897 87.6415 250.054 88.6834 253.024 89.9907C258.327 94.3372 257.536 102.729 258.607 109.08C259.453 116.57 259.203 124.359 260.46 131.687C262.852 131.319 268.517 133.556 268.811 129.325C269.253 122.228 264.737 116.391 265.118 109.353C263.528 94.5122 260.634 79.6062 255.768 65.6171C246.151 45.8517 229.67 29.7964 210.192 22.1497C209.986 22.1615 209.775 22.1183 209.574 22.1991L209.575 22.1949Z" fill="#0A192F"/>
<path d="M143.22 59.5105C115.742 60.2475 87.0128 65.1504 63.649 81.5029C57.0157 86.1071 50.4388 91.8653 48.615 100.602C44.7925 111.155 45.3064 122.696 42.8028 133.481C42.311 135.604 39.4237 133.442 39.142 136.212C37.8271 139.375 42.4721 140.186 41.5443 143.37C42.2322 149.503 40.618 156.225 42.574 162.042C45.5758 163.105 45.2097 157.571 45.4111 155.65C47.1499 136.702 49.9248 117.379 56.0273 99.5597C62.8554 89.0477 74.6167 83.565 85.6679 79.5181C117.587 69.1705 152.005 68.714 184.802 74.2959C202.834 77.7934 220.713 83.9279 236.304 94.3935C242.315 100.26 243.508 109.761 246.28 117.64C247.963 122.101 247.867 128.072 250.97 131.686C254.09 130.876 252.337 125.775 252.48 123.248C251.038 113.335 249.954 102.682 244.902 94.0739C231.987 78.8946 213.295 70.8795 195.204 65.4645C178.218 61.0587 160.69 59.2765 143.221 59.5118L143.22 59.5105Z" fill="#0A192F"/>
<path d="M79.096 26.2585C62.4878 35.4331 48.4261 50.7036 40.2721 68.823C34.9551 83.6347 31.6004 99.4374 30.9569 115.281C29.0612 120.421 28.8133 126.278 29.5383 131.647C34.7876 133.412 38.1506 130.777 37.0026 124.75C38.2054 113.685 37.4823 101.951 41.4816 91.5491C44.0998 86.9167 49.7373 86.7631 54.1339 88.0068C59.9882 85.2107 64.7956 80.0594 70.51 76.9492C72.7512 74.6333 78.3902 74.4129 77.128 69.8488C75.1219 55.5378 77.8924 41.2646 80.6291 27.3409C80.5303 26.5367 79.8062 26.0988 79.096 26.2585V26.2585Z" fill="#0A192F"/>
<path d="M143.2 9.308C125.868 9.74118 108.085 12.0914 92.2012 19.7138C88.3401 24.6966 87.5283 31.8451 86.756 38.089C86.3188 48.2098 86.6191 58.5786 87.5797 68.5435C99.2539 64.9962 111.509 61.7793 123.73 60.4505C142.677 59.5686 161.927 58.9088 180.678 62.0987C187.715 63.3296 194.765 65.3165 201.613 66.9448C204.672 64.3243 202.994 58.9013 203.688 55.1866C203.907 42.938 204.918 29.6157 198.87 18.7046C193.848 14.5436 186.695 14.6267 180.684 12.8255C168.347 10.3305 155.783 9.08861 143.206 9.30784L143.2 9.308Z" fill="#0A192F"/>
<path d="M43.3983 55.0882C43.3983 55.0882 33.2322 53.5596 23.3398 55.3306C19.4202 56.0337 6.35952 60.248 4.125 63.7106C3.08154 91.4239 6.35952 117.121 6.35952 117.121L28.9733 120.001" fill="#0A192F"/>
<path d="M43.3983 55.0882C43.3983 55.0882 33.2322 53.5596 23.3398 55.3306C19.4202 56.0337 6.35952 60.248 4.125 63.7106C3.08154 91.4239 6.35952 117.121 6.35952 117.121L28.9733 120.001" stroke="#010101" stroke-width="3.42" stroke-miterlimit="14.3" stroke-linecap="round" stroke-linejoin="round"/>
<path d="M16.4475 63.737L8.60102 63.7502C4.84539 63.7601 1.75293 67.085 1.75293 71.1207V112.581C1.75293 116.619 4.84539 119.934 8.60102 119.925L24.3032 119.896C28.0588 119.886 31.143 116.567 31.143 112.526V71.0656C31.143 67.0321 28.0588 63.7172 24.3032 63.7216L16.4475 63.737" fill="#0A192F"/>
<path d="M16.4475 63.737L8.60102 63.7502C4.84539 63.7601 1.75293 67.085 1.75293 71.1207V112.581C1.75293 116.619 4.84539 119.934 8.60102 119.925L24.3032 119.896C28.0588 119.886 31.143 116.567 31.143 112.526V71.0656C31.143 67.0321 28.0588 63.7172 24.3032 63.7216L16.4475 63.7469V63.737Z" stroke="#010101" stroke-width="3.42" stroke-miterlimit="14.3" stroke-linecap="round" stroke-linejoin="round"/>
<path d="M5.90718 81.2497C6.96704 86.8547 12.2346 90.4363 17.6548 89.2483C23.0761 88.0559 26.6062 82.5412 25.5454 76.9406C24.4763 71.3356 19.2149 67.7584 13.7977 68.9464C8.38155 70.1388 4.84322 75.649 5.90718 81.2497Z" fill="#AAABAA"/>
<path d="M5.90718 81.2497C6.96704 86.8547 12.2346 90.4363 17.6548 89.2483C23.0761 88.0559 26.6062 82.5412 25.5454 76.9406C24.4763 71.3356 19.2149 67.7584 13.7977 68.9464C8.38155 70.1388 4.84322 75.649 5.90718 81.2497Z" stroke="#010101" stroke-width="3.42" stroke-miterlimit="14.3" stroke-linecap="round" stroke-linejoin="round"/>
<path d="M5.03526 107.105C6.10435 112.71 11.3626 116.287 16.7829 115.099C22.2042 113.907 25.7425 108.396 24.6775 102.796C23.6125 97.1908 18.3512 93.6136 12.9299 94.7972C7.50964 95.9896 3.9795 101.504 5.03526 107.105" fill="#AAABAA"/>
<path d="M5.03526 107.105C6.10435 112.71 11.3626 116.287 16.7829 115.099C22.2042 113.907 25.7425 108.396 24.6775 102.796C23.6125 97.1908 18.3512 93.6136 12.9299 94.7972C7.50964 95.9896 3.9795 101.504 5.03526 107.105V107.105Z" stroke="#010101" stroke-width="3.42" stroke-miterlimit="14.3" stroke-linecap="round" stroke-linejoin="round"/>
<path d="M13.5068 79.9106C13.5068 84.5613 15.7024 88.3369 18.4064 88.3369C21.1104 88.3369 23.307 84.5569 23.307 79.9106C23.307 75.2644 21.1073 71.4833 18.4064 71.4833C15.7014 71.4811 13.5068 75.26 13.5068 79.9106Z" fill="#010101"/>
<path d="M13.5068 79.9106C13.5068 84.5613 15.7024 88.3369 18.4064 88.3369C21.1104 88.3369 23.307 84.5569 23.307 79.9106C23.307 75.2644 21.1073 71.4833 18.4064 71.4833C15.7014 71.4811 13.5068 75.26 13.5068 79.9106Z" stroke="#010101" stroke-width="3.42" stroke-miterlimit="14.3" stroke-linecap="round" stroke-linejoin="round"/>
<path d="M12.8599 104.488C12.8599 109.137 15.0554 112.915 17.7553 112.915C20.4552 112.915 22.6549 109.133 22.6549 104.488C22.6549 99.8325 20.4552 96.0602 17.7553 96.0602C15.0534 96.0591 12.8599 99.8336 12.8599 104.488Z" fill="#010101"/>
<path d="M12.8599 104.488C12.8599 109.137 15.0554 112.915 17.7553 112.915C20.4552 112.915 22.6549 109.133 22.6549 104.488C22.6549 99.8325 20.4552 96.0602 17.7553 96.0602C15.0534 96.0591 12.8599 99.8336 12.8599 104.488Z" stroke="#010101" stroke-width="3.42" stroke-miterlimit="14.3" stroke-linecap="round" stroke-linejoin="round"/>
<path d="M253.137 55.119C253.137 55.119 263.303 53.5849 273.2 55.3559C277.115 56.0623 290.18 60.2722 292.415 63.7359C293.452 91.4525 290.175 117.147 290.175 117.147L267.567 120.024" fill="#0A192F"/>
<path d="M253.137 55.119C253.137 55.119 263.303 53.5849 273.2 55.3559C277.115 56.0623 290.18 60.2722 292.415 63.7359C293.452 91.4525 290.175 117.147 290.175 117.147L267.567 120.024" stroke="#010101" stroke-width="3.42" stroke-miterlimit="14.3" stroke-linecap="round" stroke-linejoin="round"/>
<path d="M280.053 63.8021L287.909 63.8197C291.657 63.8252 294.75 67.1556 294.75 71.188V112.648C294.75 116.686 291.657 120.001 287.909 119.992L272.208 119.963C268.452 119.958 265.359 116.632 265.359 112.592V71.1318C265.359 67.0983 268.452 63.7833 272.208 63.7921L280.053 63.8021" fill="#0A192F"/>
<path d="M265.703 234.91L265.713 234.237L265.765 233.576L265.836 232.937L265.929 232.331L266.062 231.769L266.216 231.262L266.38 230.821L266.574 230.446L266.779 230.138L266.995 229.928L267.22 229.796L267.446 229.752L267.681 229.796L267.907 229.928L268.122 230.138L268.327 230.446L268.522 230.821L268.696 231.262L268.84 231.769L268.963 232.331L269.065 232.937L269.147 233.576L269.188 234.237L269.209 234.91L269.188 235.582L269.147 236.243L269.065 236.882L268.963 237.488L268.84 238.05L268.696 238.557L268.522 238.998L268.327 239.373L268.122 239.681L267.907 239.891L267.681 240.023L267.446 240.067L267.22 240.023L266.995 239.891L266.779 239.681L266.574 239.373L266.38 238.998L266.216 238.557L266.062 238.05L265.929 237.488L265.836 236.882L265.765 236.243L265.713 235.582L265.703 234.91Z" fill="#010101"/>
<path d="M38.1356 224.561L38.3344 224.859L38.5271 225.234L38.6952 225.685L38.8459 226.181L38.974 226.743L39.0796 227.349L39.1514 227.989L39.1995 228.65L39.2077 229.322L39.1995 229.994L39.1514 230.667L39.0796 231.306L38.974 231.901L38.8459 232.463L38.6952 232.981L38.5271 233.422L38.3344 233.796L38.1356 234.094L37.9142 234.314L37.6907 234.436L37.4621 234.491L37.2274 234.436L37.004 234.314L36.7877 234.094L36.5796 233.796L36.39 233.422L36.2178 232.981L36.0671 232.463L35.939 231.901L35.8385 231.306L35.7627 230.667L35.7227 229.994L35.7012 229.322L35.7227 228.65L35.7627 227.989L35.8385 227.349L35.939 226.743L36.0671 226.181L36.2178 225.685L36.39 225.234L36.5796 224.859L36.7877 224.561L37.004 224.341L37.2274 224.209L37.4621 224.165L37.6907 224.209L37.9142 224.341L38.1356 224.561Z" fill="#010101"/>
<path d="M28.2032 203.236L27.4745 197.208L27.7143 198.541L27.4345 196.811L26.7939 189.736L26.9456 190.838L26.7652 189.339L26.2526 181.14L26.3193 181.878L26.2352 180.754L25.8949 171.398L25.9031 171.607L25.8867 171.034L25.7627 160.454V160.047V160.113L25.9031 148.244L25.9431 147.252L25.9072 147.924L26.3449 134.722L26.4771 133.223L26.3613 134.424L27.1413 119.822L27.1639 119.546L28.3334 103.499L28.6696 101.391L28.8336 100.864L28.4134 102.689L30.243 89.0647L30.8652 86.7273L31.0702 86.3658L30.4521 87.9285L33.5364 75.3927L34.3933 73.5412L33.7742 74.6179L38.0269 63.1599L38.2391 62.6651L43.5579 52.2518L43.7342 51.9521L50.0339 42.5714L50.1795 42.3764L57.3586 33.9986L57.4775 33.874L65.4357 26.487L65.5362 26.4055L74.1842 19.9838L74.2682 19.9221L83.5159 14.446L83.5856 14.403L93.3334 9.84385L93.3929 9.8141L103.547 6.15088L103.598 6.13435L114.053 3.34837L114.104 3.33625L124.775 1.40766L124.826 1.39774L135.619 0.301205L135.65 0.295695L146.474 0.00695801H146.515L157.257 0.510595H157.298L172.376 2.25845L172.427 2.26836L186.285 4.90888L186.347 4.91659L199.026 8.45527L199.088 8.47401L210.619 12.9208L210.691 12.9538L221.095 18.3318L221.187 18.3836L230.494 24.6874L230.597 24.7777L238.848 32.0259L238.971 32.1593L246.167 40.3673L246.32 40.5712L252.511 49.7491L252.696 50.0532L257.903 60.2185L258.098 60.6605L262.351 71.8132L262.556 72.427L265.888 84.5794L265.457 83.4542L266.062 85.353L268.502 98.5214L268.133 97.135L268.625 99.3909L270.203 113.584L269.998 112.306L270.111 112.923L270.275 114.455L271.013 129.696L270.982 129.211L271.023 129.906L271.033 130.479L270.972 146.767L270.941 147.571L270.89 148.255L270.962 147.307L270.306 163.628L270.142 165.259L270.285 163.981L269.352 178.528L269.332 178.848L268.225 191.477L268.194 191.775L267.036 202.387L267.005 202.652L265.908 211.105L265.878 211.347L264.945 217.53L264.914 217.739L264.278 221.541L264.248 221.717L264.002 223.007L263.233 225.178L263.694 224.241L262.546 227.536L267.712 229.806L267.2 240.011L258.528 236.198L258.672 236.242L258.436 236.143L258.2 235.956L257.985 235.669L257.78 235.306L257.595 234.865L257.431 234.347L257.288 233.774L257.185 233.146L257.103 232.484L257.052 231.79L257.032 231.096L257.052 230.39L257.103 229.707L257.185 229.035L257.288 228.418L257.431 227.845L257.595 227.327L257.78 226.875L257.985 226.511L257.565 227.404L261.05 217.397L261.152 216.879L261.757 213.265L262.659 207.303L263.715 199.092L264.853 188.766L265.929 176.445L266.841 162.251L267.477 146.37L267.538 130.754L266.831 116.361L265.365 103.042L263.069 90.6957L259.922 79.2333L255.873 68.6073L250.851 58.8189L244.834 49.8934L237.772 41.8474L229.654 34.7006L220.449 28.463L210.127 23.1335L198.668 18.7132L186.039 15.191L172.222 12.5615L157.196 10.8214L146.484 10.3177L135.722 10.612L124.969 11.7041L114.35 13.6239L103.946 16.3977L93.8623 20.0455L84.1821 24.5772L75.0144 30.0114L66.4515 36.3702L58.601 43.6614L51.5622 51.8749L45.4285 61.0142L40.3076 71.0374L36.2875 81.8771L33.4328 93.4575L31.7447 106.079L30.612 121.574L29.8474 135.879L29.4189 148.762L29.2826 160.278L29.4025 170.494L29.7254 179.476L30.2153 187.278L30.8201 193.957L31.4925 199.599L32.2049 204.25L32.9019 207.997L33.5589 210.884L34.1114 212.978L34.5358 214.356L34.792 215.061L34.872 215.27L34.9283 215.425L38.6614 225.541L36.267 233.124L32.5667 223.073L32.4796 222.841L32.3945 222.632L32.0583 221.695L31.9743 221.431L31.4618 219.778L31.3736 219.48L30.733 217.067L30.6551 216.736L29.9345 213.507L29.8586 213.154L29.0858 209.044L29.0253 208.669L28.2524 203.633L28.2032 203.236Z" fill="#010101"/>
<path d="M251.517 222.556C251.517 222.556 257.761 204.762 260.079 163.233C262.173 125.779 246.096 95.1928 246.096 95.1928C246.096 95.1928 221.473 59.3806 146.661 59.3806C71.8504 59.3806 49.2274 95.1972 49.2274 95.1972C49.2274 95.1972 38.6021 125.303 36.8637 155.833C35.1283 186.363 42.2675 217.302 42.2675 217.302" stroke="#010101" stroke-width="2.564" stroke-miterlimit="11.5" stroke-linecap="round" stroke-linejoin="round"/>
<path d="M36.5347 230.314C36.5347 230.314 37.4275 237.184 41.3461 244.907C47.615 257.271 53.7569 265.973 53.7569 265.973L55.6388 283.29L89.3575 298.124C89.3575 298.124 106.805 291.953 115.801 291.953C124.792 291.953 147.801 294.945 168.032 291.763C188.258 288.584 214.617 275.666 227.479 268.078C247.723 256.147 259.068 233.492 259.068 233.492" stroke="#010101" stroke-width="3.42" stroke-miterlimit="11.5" stroke-linecap="round" stroke-linejoin="round"/>
<path d="M251.445 222.049L245.317 239.193C245.317 239.193 212.216 288.266 131.869 282.701C58.7936 277.632 45.407 233.913 45.407 233.913L41.3735 212.604" stroke="#010101" stroke-width="2.564" stroke-miterlimit="11.5" stroke-linecap="round" stroke-linejoin="round"/>
<path d="M237.874 100.845L237.516 100.558L236.429 99.7332L234.584 98.446L231.991 96.7687L228.619 94.7795L224.478 92.5677L219.547 90.2126L213.848 87.7958L207.35 85.4044L200.052 83.1044L191.964 80.9962L183.047 79.148L173.34 77.6504L162.803 76.5825L151.446 76.0237L139.258 76.0535L127.255 76.6651L116.441 77.7451L106.755 79.2175L98.1348 81.0171L90.5436 83.0647L83.9128 85.2964L78.1912 87.6426L73.3183 90.0275L69.2418 92.3815L65.9044 94.6285L63.2527 96.7026L61.2262 98.5331L59.7656 100.054L58.8236 101.177L58.3275 101.847L58.1881 102.067L57.5987 102.661L57.7832 102.534L57.7504 102.559L57.5628 102.934L57.0257 104.354L56.3338 106.476L54.6446 112.571L52.7822 120.561L50.9361 130.005L49.2869 140.475L48.0292 151.54L47.3322 162.758L47.3814 172.302L48.0015 182.694L49.0224 193.274L50.2637 203.369L51.5409 212.34L52.6817 219.525L53.1358 222.247L53.4915 224.286L53.7149 225.553L53.7477 225.707L53.7918 225.851L54.2356 227.074L55.1202 229.124L56.546 231.846L58.6012 235.13L61.3861 238.844L64.9818 242.844L69.498 246.999L75.0075 251.176L81.6147 255.22L89.4068 259.011L98.4638 262.395L108.887 265.249L120.767 267.409L134.184 268.765L149.221 269.161L161.696 268.533L173.135 266.957L183.58 264.566L193.051 261.491L201.589 257.876L209.225 253.865L215.98 249.589L221.895 245.192L226.999 240.806L231.304 236.574L234.871 232.639L237.7 229.124L239.842 226.17L241.329 223.922L242.169 222.512L242.2 222.467L244.322 213.563L245.951 205.033L247.1 197.054L247.858 189.307L248.34 181.46L248.637 173.206L248.852 164.279L249.068 154.592L248.617 143.395L247.315 133.102L245.429 123.812L243.235 115.756L241.042 109.14L239.125 104.181L237.772 101.087L237.516 100.558L237.495 100.544L238.889 94.5338L239.268 94.8357L239.084 94.7156L239.309 94.8699L239.873 95.6623L240.416 96.7808L240.468 96.8877L241.872 100.118L241.933 100.269L243.922 105.396L243.983 105.59L246.259 112.428L246.331 112.67L248.596 121.013L248.35 120.329L248.668 121.332L250.626 130.975L250.513 130.49L250.697 131.383L252.061 142.128L252.05 142.018L252.102 142.635L252.573 154.295V154.339L252.583 154.68L252.348 164.566L252.143 173.536V173.614L251.835 181.978V182.132L251.333 190.155L251.323 190.376L250.533 198.366L250.503 198.619L249.314 206.862L249.273 207.116L247.592 215.888L247.551 216.109L245.265 225.707L244.896 226.699L244.721 226.986L244.875 226.721L244.588 227.25L244.537 227.35L243.635 228.859L243.573 228.947L242.026 231.306L241.954 231.394L239.75 234.436L239.678 234.535L236.767 238.139L236.696 238.227L233.057 242.26L232.975 242.337L228.588 246.646L228.506 246.724L223.319 251.176L223.237 251.242L217.241 255.705L217.149 255.76L210.312 260.091L210.209 260.147L202.491 264.202L202.409 264.246L193.778 267.894L193.696 267.927L184.133 271.024L184.041 271.057L173.524 273.47L173.432 273.481L161.911 275.079L161.829 275.09L149.283 275.707L149.211 275.718L134.102 275.311H134.031L120.542 273.944L120.47 273.933L108.508 271.751L108.426 271.729L97.9185 268.864L97.8263 268.831L88.6709 265.414L88.5735 265.37L80.6778 261.535L80.5774 261.48L73.8636 257.358L73.7508 257.292L68.1215 253.027L68.0005 252.928L63.3726 248.663L63.2527 248.542L59.5288 244.409L59.4089 244.255L56.5019 240.376L56.383 240.199L54.2049 236.728L54.0911 236.53L52.5577 233.587L52.4511 233.367L51.465 231.096L51.3687 230.865L50.8449 229.399L50.768 229.179L50.6174 228.661L50.768 229.091L50.48 228.11L50.4011 227.658L50.396 227.647L50.1633 226.347L50.1602 226.314L49.7994 224.253L49.7912 224.22L49.331 221.465L49.3228 221.409L48.1737 214.158L48.1614 214.059L46.8689 205.011L46.8525 204.89L45.5948 194.663L45.5784 194.508L44.5421 183.741L44.5257 183.532L43.8892 172.875L43.9015 173.007L43.882 172.545L43.8267 162.615L43.8287 162.384L43.8379 162.207L44.5534 150.636L44.5821 150.305V150.327L45.8675 138.987L45.9033 138.745L47.5864 128.055L47.6212 127.856L49.5083 118.225L49.5483 118.037L51.4568 109.86L51.505 109.662L53.2506 103.368L53.308 103.175L54.0593 100.854L54.1321 100.66L54.7758 98.964L54.9244 98.6235L55.437 97.5997L55.8377 97.0057L56.054 96.8073L56.0007 96.8459L56.3543 96.5527L55.9495 97.0178L56.1381 96.7379L56.2221 96.6177L56.7982 95.8254L56.8904 95.7096L57.9267 94.4743L58.0159 94.3751L59.5647 92.765L59.6569 92.6834L61.7664 90.7714L61.8504 90.6986L64.5893 88.5595L64.6733 88.4989L68.0938 86.1912L68.1655 86.1428L72.3168 83.7513L72.3937 83.7116L77.3383 81.2926L77.4019 81.2585L83.1963 78.8847L83.2568 78.8648L89.9542 76.6133L90.0105 76.5957L97.6663 74.5294L97.7186 74.5161L106.386 72.7088L106.437 72.6955L116.175 71.2177L116.226 71.21L127.091 70.1256H127.132L139.176 69.5051H139.227L151.466 69.472H151.507L162.926 70.0352L162.967 70.0396L173.555 71.1152L173.596 71.1196L183.375 72.6272L183.416 72.6349L192.374 74.4908L192.415 74.504L200.564 76.6255L200.615 76.6376L207.954 78.9508L208.006 78.9673L214.545 81.383L214.596 81.3995L220.357 83.8362L220.398 83.8582L225.359 86.2331L225.41 86.2607L229.603 88.4945L229.654 88.5199L233.067 90.5355L233.108 90.5609L235.753 92.2702L235.804 92.2944L237.68 93.6213L237.731 93.6521L238.848 94.4985L238.889 94.5338L239.268 94.8357L237.874 100.845Z" fill="#010101"/>
<path d="M198.504 16.9517C198.504 16.9517 204.22 29.2505 204.22 40.5311C204.22 51.804 203.267 66.8514 203.267 66.8514L212.801 71.6034C212.801 71.6034 214.706 63.0758 213.76 49.7564C212.801 36.4326 208.039 21.0601 208.039 21.0601" stroke="#010101" stroke-width="2.564" stroke-miterlimit="11.5" stroke-linecap="round" stroke-linejoin="round"/>
<path d="M92.0461 17.9722C92.0461 17.9722 86.3245 30.271 86.3245 41.5417C86.3245 52.8201 87.2818 68.5662 87.2818 68.5662L77.7482 72.6085C77.7482 72.6085 75.8386 64.0907 76.7949 50.767C77.7482 37.4432 82.5104 22.0707 82.5104 22.0707" stroke="#010101" stroke-width="2.564" stroke-miterlimit="11.5" stroke-linecap="round" stroke-linejoin="round"/>
<path d="M34.46 132.243L19.6281 132.857C19.6281 132.857 15.2677 142.844 16.0939 158.549C16.9118 174.258 20.6408 184.756 20.6408 184.756L36.4209 184.205C36.4209 184.205 34.5502 174.847 34.254 158.147C33.9629 141.453 34.46 132.243 34.46 132.243" fill="#0A192F"/>
<path d="M34.46 132.243L19.6281 132.857C19.6281 132.857 15.2677 142.844 16.0939 158.549C16.9118 174.258 20.6408 184.756 20.6408 184.756L36.4209 184.205C36.4209 184.205 34.5502 174.847 34.254 158.147C33.9629 141.451 34.46 132.238 34.46 132.238V132.243Z" stroke="#010101" stroke-width="3.42" stroke-miterlimit="11.5" stroke-linecap="round" stroke-linejoin="round"/>
<path d="M40.3579 157.788C40.6019 171.825 38.6615 183.269 36.0334 183.32C33.3991 183.372 31.0672 172.014 30.8284 157.978C30.5814 143.941 32.5166 132.498 35.1498 132.445C37.78 132.394 40.1109 143.75 40.3579 157.788Z" fill="#0A192F"/>
<path d="M40.3579 157.788C40.6019 171.825 38.6615 183.269 36.0334 183.32C33.3991 183.372 31.0672 172.014 30.8284 157.978C30.5814 143.941 32.5166 132.498 35.1498 132.445C37.78 132.39 40.1109 143.752 40.3579 157.793V157.788Z" stroke="#010101" stroke-width="3.42" stroke-miterlimit="11.5" stroke-linecap="round" stroke-linejoin="round"/>
<path d="M41.0383 140.354L36.9875 141.11C36.9875 141.11 35.6796 149.497 35.5596 157.968C35.45 166.437 36.5211 174.978 36.5211 174.978L40.573 174.22L41.0383 140.354" fill="#010101"/>
<path d="M41.0383 140.354L36.9875 141.11C36.9875 141.11 35.6796 149.497 35.5596 157.968C35.45 166.437 36.5211 174.978 36.5211 174.978L40.573 174.218L41.0383 140.352V140.354Z" stroke="#010101" stroke-width="3.42" stroke-miterlimit="11.5" stroke-linecap="round" stroke-linejoin="round"/>
<path d="M262.28 132.232L277.112 132.841C277.112 132.841 281.476 142.834 280.655 158.539C279.829 174.247 276.103 184.746 276.103 184.746L260.323 184.195C260.323 184.195 262.201 174.837 262.488 158.136C262.775 141.437 262.28 132.232 262.28 132.232" fill="#0A192F"/>
<path d="M262.28 132.232L277.112 132.841C277.112 132.841 281.476 142.834 280.655 158.539C279.829 174.247 276.103 184.746 276.103 184.746L260.323 184.195C260.323 184.195 262.201 174.837 262.488 158.136C262.765 141.451 262.273 132.238 262.273 132.238L262.28 132.232Z" stroke="#010101" stroke-width="3.42" stroke-miterlimit="11.5" stroke-linecap="round" stroke-linejoin="round"/>
<path d="M256.509 157.898C256.271 171.936 258.206 183.374 260.835 183.431C263.468 183.482 265.801 172.13 266.048 158.093C266.287 144.048 264.351 132.614 261.718 132.561C259.092 132.504 256.757 143.857 256.509 157.898" fill="#0A192F"/>
<path d="M256.509 157.898C256.271 171.936 258.206 183.374 260.835 183.431C263.468 183.482 265.801 172.13 266.048 158.093C266.287 144.048 264.351 132.614 261.718 132.561C259.094 132.506 256.757 143.857 256.511 157.897L256.509 157.898Z" stroke="#010101" stroke-width="3.42" stroke-miterlimit="11.5" stroke-linecap="round" stroke-linejoin="round"/>
<path d="M255.792 140.343L259.754 141.101C259.754 141.101 261.045 149.495 261.168 157.96C261.292 166.429 260.249 174.97 260.249 174.97L256.286 174.21L255.792 140.343" fill="#010101"/>
<path d="M255.792 140.343L259.754 141.101C259.754 141.101 261.045 149.495 261.168 157.96C261.292 166.429 260.249 174.97 260.249 174.97L256.286 174.21L255.794 140.344L255.792 140.343Z" stroke="#010101" stroke-width="3.42" stroke-miterlimit="11.5" stroke-linecap="round" stroke-linejoin="round"/>
<path d="M36.8789 132.11C36.8789 132.11 37.8106 101.001 40.6161 92.9645C43.4174 84.936 53.685 87.949 53.685 87.949C53.685 87.949 46.2137 100.997 44.3533 121.067C43.1366 134.053 45.2819 137.131 36.8789 132.11Z" fill="#0A192F"/>
<path d="M259.973 133.113C259.973 133.113 259.036 102 256.236 93.9718C253.439 85.9434 243.171 88.9519 243.171 88.9519C243.171 88.9519 250.634 101.996 252.503 122.074C253.71 135.056 251.572 138.13 259.973 133.113Z" fill="#0A192F"/>
<path d="M259.973 133.113C259.973 133.113 259.037 102 256.236 93.9718C253.439 85.9434 243.171 88.9519 243.171 88.9519C243.171 88.9519 250.634 101.996 252.503 122.074C253.713 135.067 251.581 138.142 259.975 133.117L259.973 133.113Z" stroke="#010101" stroke-width="2.564" stroke-miterlimit="11.5" stroke-linecap="round" stroke-linejoin="round"/>
<path d="M36.7798 229.465H44.618" stroke="#010101" stroke-width="2.564" stroke-miterlimit="14.3"/>
<path d="M53.103 264.566L62.2441 270.892L94.8988 285.637L118.41 291.257" stroke="#010101" stroke-width="2.564" stroke-miterlimit="14.3" stroke-linecap="round" stroke-linejoin="round"/>
<path d="M89.0225 296.867L93.5981 286.342" stroke="#010101" stroke-width="2.564" stroke-miterlimit="14.3" stroke-linecap="round" stroke-linejoin="round"/>
<path d="M57.0234 282.121L62.252 271.597" stroke="#010101" stroke-width="2.564" stroke-miterlimit="14.3" stroke-linecap="round" stroke-linejoin="round"/>
<path d="M251.63 222.445L259.471 228.066" stroke="#010101" stroke-width="2.564" stroke-miterlimit="14.3"/>
<path d="M88.2043 125.884C85.2226 134.619 77.5791 139.636 71.1461 137.094C64.7183 134.549 61.9292 125.408 64.9161 116.673C67.903 107.947 75.5424 102.921 81.9753 105.467C88.4052 108.005 91.1953 117.158 88.2043 125.884" fill="#0A192F"/>
<path d="M88.2043 125.884C85.2226 134.619 77.5791 139.636 71.1461 137.094C64.7183 134.549 61.9292 125.408 64.9161 116.673C67.903 107.952 75.5424 102.927 81.9753 105.473C88.4052 108.011 91.1953 117.158 88.2043 125.886V125.884Z" stroke="#010101" stroke-width="1.712" stroke-miterlimit="14.3"/>
<path d="M98.3109 97.1689C96.9108 101.273 93.3232 103.632 90.3036 102.441C87.2849 101.243 85.979 96.9506 87.3782 92.8455C88.7783 88.7415 92.3659 86.3809 95.3856 87.5777C98.4032 88.7701 99.7121 93.0703 98.3109 97.1689" fill="#0A192F"/>
<path d="M98.3109 97.1689C96.9108 101.273 93.3232 103.632 90.3036 102.441C87.2849 101.243 85.979 96.9506 87.3782 92.8455C88.7783 88.7415 92.3659 86.3809 95.3856 87.5777C98.4032 88.7701 99.7121 93.0703 98.3109 97.1689V97.1689Z" stroke="#010101" stroke-width="1.712" stroke-miterlimit="14.3"/>
<path d="M271.966 215.403L256.623 213.907C256.623 213.907 254.166 217.897 253.578 224.698C252.991 231.5 253.955 236.265 253.955 236.265L269.695 237.851C269.695 237.851 269.458 233.701 270.327 226.508C271.204 219.321 271.966 215.403 271.966 215.403Z" fill="#0A192F"/>
<path d="M271.966 215.403L256.623 213.907C256.623 213.907 254.166 217.897 253.578 224.698C252.991 231.5 253.955 236.265 253.955 236.265L269.695 237.851C269.695 237.851 269.458 233.701 270.327 226.508C271.198 219.322 271.957 215.399 271.957 215.399L271.966 215.403Z" stroke="#010101" stroke-width="3.42" stroke-miterlimit="14.3" stroke-linecap="round" stroke-linejoin="round"/>
<path d="M273.012 226.677C272.274 232.719 270.769 237.497 269.64 237.345C268.518 237.185 268.199 232.153 268.935 226.107C269.664 220.064 271.178 215.281 272.297 215.437C273.429 215.596 273.74 220.629 273.012 226.677" fill="#0A192F"/>
<path d="M273.012 226.677C272.274 232.719 270.769 237.497 269.64 237.345C268.518 237.185 268.199 232.153 268.935 226.107C269.664 220.064 271.178 215.281 272.297 215.437C273.435 215.592 273.742 220.628 273.015 226.678L273.012 226.677Z" stroke="#010101" stroke-width="3.42" stroke-miterlimit="14.3" stroke-linecap="round" stroke-linejoin="round"/>
<path d="M247.765 197.33C247.765 197.33 228.971 210.804 208.094 216.41C187.218 222.026 180.954 222.026 180.954 222.026C180.954 222.026 176.779 214.164 163.209 214.164C149.639 214.164 149.64 222.026 149.64 228.752C149.64 235.489 156.947 236.609 165.299 236.609C173.651 236.609 180.952 232.126 180.952 232.126C180.952 232.126 196.611 231.001 209.14 227.638C221.667 224.269 245.674 214.167 245.674 214.167" fill="#010101"/>
<path d="M280.053 63.8021L287.909 63.8197C291.657 63.8252 294.75 67.1556 294.75 71.188V112.648C294.75 116.686 291.657 120.001 287.909 119.992L272.208 119.963C268.452 119.958 265.359 116.632 265.359 112.592V71.1318C265.359 67.0983 268.452 63.7833 272.208 63.7921L280.06 63.812L280.053 63.8021Z" fill="#0A192F" stroke="#010101" stroke-width="3.42" stroke-miterlimit="14.3" stroke-linecap="round" stroke-linejoin="round"/>
<path d="M290.56 81.4944C289.495 87.095 284.232 90.6766 278.816 89.4842C273.395 88.3028 269.857 82.7871 270.922 77.182C271.987 71.5814 277.248 67.9998 282.669 69.1922C288.091 70.3758 291.623 75.8893 290.56 81.4944Z" fill="#AAABAA"/>
<path d="M291.421 107.342C290.36 112.947 285.094 116.529 279.677 115.342C274.256 114.149 270.721 108.639 271.782 103.039C272.847 97.4333 278.109 93.8517 283.529 95.0386C288.951 96.2299 292.49 101.74 291.421 107.342" fill="#AAABAA"/>
<path d="M282.985 79.9063C282.985 84.5569 280.785 88.3325 278.086 88.3325C275.378 88.3325 273.186 84.5525 273.186 79.9063C273.186 75.26 275.382 71.4789 278.086 71.4789C280.786 71.4778 282.985 75.2578 282.985 79.9063Z" fill="#010101"/>
<path d="M282.985 79.9063C282.985 84.5569 280.785 88.3325 278.086 88.3325C275.378 88.3325 273.186 84.5525 273.186 79.9063C273.186 75.26 275.382 71.4789 278.086 71.4789C280.792 71.4778 282.985 75.2578 282.985 79.9063Z" stroke="#010101" stroke-width="3.42" stroke-miterlimit="14.3" stroke-linecap="round" stroke-linejoin="round"/>
<path d="M283.641 104.483C283.641 109.133 281.447 112.911 278.747 112.911C276.038 112.911 273.846 109.128 273.846 104.483C273.846 99.8281 276.043 96.0558 278.747 96.0558C281.448 96.0536 283.641 99.8292 283.641 104.483Z" fill="#010101"/>
<path d="M283.641 104.483C283.641 109.133 281.447 112.911 278.747 112.911C276.038 112.911 273.846 109.128 273.846 104.483C273.846 99.8281 276.043 96.0558 278.747 96.0558C281.453 96.0536 283.646 99.8292 283.646 104.483H283.641Z" stroke="#010101" stroke-width="3.42" stroke-miterlimit="14.3" stroke-linecap="round" stroke-linejoin="round"/>
<path d="M290.56 81.4944C289.495 87.095 284.232 90.6766 278.816 89.4842C273.395 88.3028 269.857 82.7871 270.922 77.182C271.987 71.5814 277.248 67.9998 282.669 69.1922C288.092 70.3758 291.628 75.8893 290.562 81.4944H290.56Z" stroke="#010101" stroke-width="3.42" stroke-miterlimit="14.3" stroke-linecap="round" stroke-linejoin="round"/>
<path d="M291.421 107.342C290.36 112.947 285.094 116.529 279.677 115.342C274.256 114.149 270.721 108.639 271.782 103.039C272.847 97.4333 278.109 93.8517 283.529 95.0386C288.952 96.2299 292.498 101.74 291.422 107.342H291.421Z" stroke="#010101" stroke-width="3.42" stroke-miterlimit="14.3" stroke-linecap="round" stroke-linejoin="round"/>
<path d="M138.124 75.431C116.286 75.0939 94.1315 78.8434 74.0412 88.1984C65.5687 92.7735 55.5565 98.9214 54.0644 110.017C46.7823 137.773 44.1678 166.997 48.1572 195.631C49.9655 207.344 50.4713 219.695 54.6391 230.802C65.3008 250.833 86.545 260.911 106.696 265.929C143.236 274.034 183.902 272.511 216.263 250.752C226.504 243.412 236.408 234.64 242.849 223.25C244.042 220.442 245.14 217.251 245 214.197C241.95 213.101 238.535 216.223 235.433 216.826C219.017 223.763 201.96 228.822 184.425 230.717C177.004 232.066 170.071 236.026 162.335 235.009C157.687 235.178 150.481 234.183 151.032 227.555C150.4 222.675 152.661 217.537 157.278 216.386C165.187 213.763 174.061 216.548 180.066 222.487C185.972 224.069 192.154 221.02 198.037 220.223C215.006 216.847 230.839 209.341 245.869 200.446C249.399 197.48 248.275 191.56 249.121 187.312C250.233 161.009 251.946 133.466 242.159 108.65C240.592 101.789 235.936 96.538 229.851 93.9608C210.149 83.285 188.17 77.5157 166.264 75.7013C156.899 75.3118 147.521 75.4222 138.142 75.4374L138.124 75.431ZM93.4623 87.878C98.5069 87.9181 99.9778 95.3161 96.8749 98.9725C94.9677 102.886 88.9984 103.28 87.6776 98.6773C86.1254 94.4234 88.9925 88.1747 93.466 87.878H93.4623ZM78.1369 105.32C86.4263 105.35 91.1531 116.22 88.2955 123.843C86.4783 131.944 78.3844 139.938 70.472 136.241C62.0493 131.256 62.9227 117.72 68.687 110.854C71.0387 107.838 74.4505 105.439 78.1369 105.32V105.32Z" fill="#234358" fill-opacity="0.62117"/>
<path d="M88.7757 20.9943C84.4802 22.1881 80.5214 25.2299 80.3325 30.3917C77.7058 43.7218 75.1413 57.8124 77.8389 71.3496C80.4787 72.3934 84.2913 69.8295 86.6233 68.385C87.4441 55.3698 85.6767 41.8625 87.9749 28.9897C87.9068 26.928 91.7001 21.638 88.7759 20.995L88.7757 20.9943Z" fill="#64FFDA"/>
<path d="M200.767 18.5128C199.027 20.9357 202.019 24.5144 202.232 27.2702C205.278 38.4301 203.204 50.4913 203.833 62.0047C202.365 66.8677 205.923 68.7907 209.599 69.8765C212.974 72.0441 213.67 66.729 213.672 64.2186C214.435 49.7896 212.499 34.9976 207.746 21.5147C205.903 19.7571 203.193 18.6645 200.767 18.5128Z" fill="#64FFDA"/>
<path d="M250.441 227.257C246.941 232.791 245.997 240.17 240.681 244.418C218.014 269.297 185.382 281.401 153.43 282.853C123.72 284.082 92.2794 279.704 67.3363 261.376C57.1923 253.68 48.0748 243.091 44.1797 230.257C41.7821 227.709 36.3479 229.752 37.9797 233.898C40.7913 244.849 46.8212 254.633 53.1946 263.565C61.7938 272.273 73.7989 275.428 84.3339 280.613C101.516 288.309 120.128 292.804 138.879 292.212C154.596 292.672 170.513 292.186 185.509 286.615C202.735 280.683 219.719 272.917 234.85 262.353C242.494 255.61 249.955 248.01 254.897 238.745C254.779 236.295 252.693 234.393 252.934 231.685C252.605 230.27 252.62 226.541 250.438 227.257L250.441 227.257Z" fill="#64FFDA"/>
<path d="M259.251 184.75C257.107 188.732 257.72 194.346 256.554 198.881C256.093 203.746 254.646 208.608 254.354 213.384C257.08 213.561 263.145 215.221 263.415 210.457C264.302 202.62 266.167 194.606 265.657 186.644C264.49 184.432 261.224 184.977 259.251 184.75V184.75Z" fill="#0A192F"/>
<path d="M36.8789 132.11C36.8789 132.11 37.8106 101.001 40.6161 92.9645C43.4174 84.936 53.685 87.949 53.685 87.949C53.685 87.949 46.2137 100.997 44.3533 121.067C43.1366 134.049 45.2819 137.124 36.8789 132.109V132.11Z" stroke="#010101" stroke-width="2.564" stroke-miterlimit="11.5" stroke-linecap="round" stroke-linejoin="round"/>
</svg>
