<svg width="564" height="537" viewBox="0 0 564 537" fill="none" xmlns="http://www.w3.org/2000/svg">
<path opacity="0.111111" d="M73.9082 177.921L298.857 60.9007L523.806 177.921V411.874L298.857 528.894L73.9082 411.874V177.921Z" stroke="#64FFDA"/>
<path opacity="0.222222" d="M69.0918 170.379L294.041 53.3586L518.99 170.379V404.332L294.041 521.352L69.0918 404.332V170.379Z" stroke="#64FFDA"/>
<path opacity="0.333333" d="M64.2755 162.837L289.225 45.8164L514.174 162.837V396.79L289.225 513.81L64.2755 396.79V162.837Z" stroke="#64FFDA"/>
<path opacity="0.444444" d="M59.4591 155.294L284.408 38.2743L509.357 155.294V389.248L284.408 506.268L59.4591 389.248V155.294Z" stroke="#64FFDA"/>
<path opacity="0.555556" d="M54.6427 147.752L279.592 30.7322L504.541 147.752V381.706L279.592 498.726L54.6427 381.706V147.752Z" stroke="#64FFDA"/>
<path opacity="0.666667" d="M49.8263 140.21L274.775 23.19L499.725 140.21V374.163L274.775 491.184L49.8263 374.163V140.21Z" stroke="#64FFDA"/>
<path opacity="0.777778" d="M45.0099 132.668L269.959 15.6479L494.908 132.668V366.621L269.959 483.641L45.0099 366.621V132.668Z" stroke="#64FFDA"/>
<path opacity="0.888889" d="M40.1935 125.126L265.143 8.10575L490.092 125.126V359.079L265.143 476.099L40.1935 359.079V125.126Z" stroke="#64FFDA"/>
<path d="M35.3771 117.584L260.326 0.563605L485.275 117.584V351.537L260.326 468.557L35.3771 351.537V117.584Z" stroke="#64FFDA"/>
</svg>
