<svg width="564" height="537" viewBox="0 0 564 537" fill="none" xmlns="http://www.w3.org/2000/svg">
<path opacity="0.111111" d="M73.6582 177.769L298.857 60.6189L524.056 177.769V412.026L298.857 529.176L73.6582 412.026V177.769Z" stroke="#64FFDA" stroke-width="0.5"/>
<path opacity="0.222222" d="M68.8418 170.227L294.041 53.0768L519.24 170.227V404.484L294.041 521.634L68.8418 404.484V170.227Z" stroke="#64FFDA" stroke-width="0.5"/>
<path opacity="0.333333" d="M64.0255 162.685L289.225 45.5346L514.424 162.685V396.942L289.225 514.092L64.0255 396.942V162.685Z" stroke="#64FFDA" stroke-width="0.5"/>
<path opacity="0.444444" d="M59.2091 155.143L284.408 37.9925L509.607 155.143V389.4L284.408 506.55L59.2091 389.4V155.143Z" stroke="#64FFDA" stroke-width="0.5"/>
<path opacity="0.555556" d="M54.3927 147.601L279.592 30.4504L504.791 147.601V381.857L279.592 499.008L54.3927 381.857V147.601Z" stroke="#64FFDA" stroke-width="0.5"/>
<path opacity="0.666667" d="M49.5763 140.058L274.775 22.9082L499.975 140.058V374.315L274.775 491.465L49.5763 374.315V140.058Z" stroke="#64FFDA" stroke-width="0.5"/>
<path opacity="0.777778" d="M44.7599 132.516L269.959 15.3661L495.158 132.516V366.773L269.959 483.923L44.7599 366.773V132.516Z" stroke="#64FFDA" stroke-width="0.5"/>
<path opacity="0.888889" d="M39.9435 124.974L265.143 7.82396L490.342 124.974V359.231L265.143 476.381L39.9435 359.231V124.974Z" stroke="#64FFDA" stroke-width="0.5"/>
<path d="M35.1271 117.432L260.326 0.281811L485.525 117.432V351.689L260.326 468.839L35.1271 351.689V117.432Z" stroke="#64FFDA" stroke-width="0.5"/>
</svg>
