<svg width="42" height="42" viewBox="0 0 42 42" fill="none" xmlns="http://www.w3.org/2000/svg">
<path d="M3.81347 11.0773L21 1.1547L38.1865 11.0773V30.9226L21 40.8453L3.81347 30.9226V11.0773Z" stroke="#64FFDA" stroke-width="2"/>
<path d="M15.28 14H20.98C22.46 14 23.7667 14.3 24.9 14.9C26.0333 15.4867 26.9133 16.3133 27.54 17.38C28.1667 18.4333 28.48 19.64 28.48 21C28.48 22.36 28.1667 23.5733 27.54 24.64C26.9133 25.6933 26.0333 26.52 24.9 27.12C23.7667 27.7067 22.46 28 20.98 28H15.28V14ZM20.9 26.72C22.1267 26.72 23.2 26.48 24.12 26C25.04 25.5067 25.7533 24.8333 26.26 23.98C26.7667 23.1133 27.02 22.12 27.02 21C27.02 19.88 26.7667 18.8933 26.26 18.04C25.7533 17.1733 25.04 16.5 24.12 16.02C23.2 15.5267 22.1267 15.28 20.9 15.28H16.76V26.72H20.9Z" fill="#64FFDA"/>
</svg>
